# xmcd
#
# Track frame offsets: 
#        150
#        10625
#        21735
#        37065
#        50710
#        64042
#        74540
#        86157
#        100172
#        111990
#        122495
#        137102
#
# Disc length: 1967 seconds
#
# Revision: 3
# Processed by: cddbd v1.5.2PL0 Copyright (c) Steve Scherf et al.
# Submitted via: ExactAudioCopy v1.0b4
#
DISCID=af07ad0c
DTITLE=Nelson Gonçalves - O Tango - 1961 (1998)
DYEAR=1961
DGENRE=Tangos
TTITLE0=Palhaço
TTITLE1=Carlos Gardel
TTITLE2=Hoje Quem Paga Sou Eu
TTITLE3=À Meia-Luz (A Media Luz)
TTITLE4=Sempre É Carnaval (Siempre Es Carnaval)
TTITLE5=O Último Tango
TTITLE6=Estação da Luz
TTITLE7=Vermelho 27
TTITLE8=Amarga Confissão
TTITLE9=Estrelas Na Lama
TTITLE10=Esta Noite Me Embriago (Esta Noche Me Emborracho)
TTITLE11=Carmen
EXTD=
EXTT0=
EXTT1=
EXTT2=
EXTT3=
EXTT4=
EXTT5=
EXTT6=
EXTT7=
EXTT8=
EXTT9=
EXTT10=
EXTT11=
PLAYORDER=
